<svg xmlns="https://www.w3.org/TR/SVG2/" width="800" height="800">
<rect width="800" height="800" fill="rgb(160, 238, 106)"/>
<circle cx="35.74" cy="33.30" r="12.26" fill="rgb(38, 199, 0)" fill-opacity="0.32"/>
<rect x="68.97" y="14.65" width="25.52" height="34.06" fill="rgb(74, 165, 9)" fill-opacity="0.66"/>
<rect x="110.68" y="19.89" width="13.31" height="29.30" fill="rgb(253, 109, 234)" fill-opacity="0.68"/>
<rect x="169.39" y="9.57" width="23.78" height="29.28" fill="rgb(57, 245, 152)" fill-opacity="0.74"/>
<rect x="201.50" y="7.46" width="24.94" height="18.20" fill="rgb(31, 26, 124)" fill-opacity="0.71"/>
<circle cx="282.19" cy="15.90" r="10.05" fill="rgb(115, 232, 42)" fill-opacity="0.80"/>
<circle cx="327.34" cy="17.69" r="22.70" fill="rgb(72, 62, 47)" fill-opacity="0.70"/>
<rect x="366.56" y="20.94" width="29.63" height="26.16" fill="rgb(191, 124, 208)" fill-opacity="0.31"/>
<rect x="405.77" y="27.38" width="18.01" height="18.10" fill="rgb(24, 218, 25)" fill-opacity="0.29"/>
<circle cx="472.02" cy="14.03" r="9.45" fill="rgb(34, 195, 29)" fill-opacity="0.74"/>
<circle cx="513.82" cy="14.41" r="14.24" fill="rgb(189, 44, 167)" fill-opacity="0.30"/>
<circle cx="571.84" cy="31.01" r="19.09" fill="rgb(74, 227, 86)" fill-opacity="0.64"/>
<circle cx="679.77" cy="24.04" r="21.33" fill="rgb(249, 248, 237)" fill-opacity="0.51"/>
<circle cx="764.44" cy="33.19" r="17.99" fill="rgb(132, 58, 33)" fill-opacity="0.60"/>
<circle cx="17.91" cy="66.76" r="18.69" fill="rgb(212, 5, 188)" fill-opacity="0.81"/>
<rect x="44.63" y="50.44" width="46.56" height="33.49" fill="rgb(236, 16, 161)" fill-opacity="0.85"/>
<rect x="104.00" y="62.74" width="18.22" height="47.40" fill="rgb(104, 23, 56)" fill-opacity="0.84"/>
<circle cx="164.89" cy="80.80" r="18.50" fill="rgb(217, 137, 154)" fill-opacity="0.72"/>
<circle cx="231.99" cy="79.13" r="6.62" fill="rgb(137, 118, 135)" fill-opacity="0.46"/>
<circle cx="271.94" cy="69.25" r="13.16" fill="rgb(131, 154, 4)" fill-opacity="0.66"/>
<rect x="321.12" y="45.26" width="20.03" height="45.50" fill="rgb(53, 145, 24)" fill-opacity="0.55"/>
<rect x="376.08" y="65.29" width="22.00" height="37.64" fill="rgb(247, 90, 27)" fill-opacity="0.43"/>
<rect x="408.99" y="58.24" width="38.21" height="45.50" fill="rgb(63, 50, 69)" fill-opacity="0.53"/>
<rect x="511.12" y="49.53" width="21.57" height="39.00" fill="rgb(38, 108, 221)" fill-opacity="0.44"/>
<circle cx="576.13" cy="84.21" r="18.90" fill="rgb(50, 235, 197)" fill-opacity="0.36"/>
<circle cx="636.29" cy="81.10" r="16.15" fill="rgb(97, 164, 110)" fill-opacity="0.82"/>
<rect x="708.67" y="55.45" width="38.60" height="34.53" fill="rgb(184, 55, 45)" fill-opacity="0.85"/>
<circle cx="786.01" cy="64.83" r="16.74" fill="rgb(22, 122, 37)" fill-opacity="0.52"/>
<circle cx="24.70" cy="127.44" r="15.74" fill="rgb(142, 199, 26)" fill-opacity="0.26"/>
<rect x="153.10" y="101.42" width="36.77" height="33.97" fill="rgb(95, 158, 189)" fill-opacity="0.83"/>
<rect x="213.11" y="120.36" width="15.99" height="34.04" fill="rgb(125, 122, 174)" fill-opacity="0.79"/>
<rect x="247.13" y="99.71" width="38.74" height="47.20" fill="rgb(197, 249, 44)" fill-opacity="0.29"/>
<rect x="322.37" y="107.86" width="25.05" height="29.45" fill="rgb(160, 217, 217)" fill-opacity="0.48"/>
<rect x="366.56" y="99.38" width="15.08" height="26.84" fill="rgb(41, 28, 177)" fill-opacity="0.43"/>
<rect x="410.56" y="118.20" width="38.69" height="34.47" fill="rgb(86, 244, 19)" fill-opacity="0.72"/>
<rect x="460.43" y="121.99" width="32.62" height="26.80" fill="rgb(6, 229, 184)" fill-opacity="0.45"/>
<rect x="513.68" y="105.93" width="17.24" height="23.40" fill="rgb(136, 106, 201)" fill-opacity="0.78"/>
<circle cx="572.72" cy="114.95" r="16.80" fill="rgb(2, 236, 246)" fill-opacity="0.53"/>
<circle cx="614.56" cy="135.17" r="14.50" fill="rgb(146, 245, 170)" fill-opacity="0.87"/>
<rect x="657.06" y="105.21" width="41.69" height="44.42" fill="rgb(124, 1, 112)" fill-opacity="0.35"/>
<circle cx="736.54" cy="132.59" r="11.31" fill="rgb(123, 204, 69)" fill-opacity="0.51"/>
<circle cx="766.29" cy="113.10" r="22.11" fill="rgb(153, 25, 131)" fill-opacity="0.76"/>
<circle cx="18.07" cy="183.31" r="8.15" fill="rgb(31, 119, 117)" fill-opacity="0.72"/>
<circle cx="67.36" cy="176.43" r="18.95" fill="rgb(39, 117, 204)" fill-opacity="0.43"/>
<circle cx="118.00" cy="175.23" r="15.30" fill="rgb(49, 129, 140)" fill-opacity="0.27"/>
<rect x="162.82" y="152.20" width="13.42" height="23.09" fill="rgb(155, 47, 113)" fill-opacity="0.80"/>
<circle cx="235.18" cy="172.68" r="11.63" fill="rgb(52, 192, 224)" fill-opacity="0.38"/>
<circle cx="283.72" cy="181.07" r="22.45" fill="rgb(151, 139, 228)" fill-opacity="0.28"/>
<rect x="294.04" y="150.93" width="46.85" height="25.15" fill="rgb(137, 40, 252)" fill-opacity="0.33"/>
<rect x="356.15" y="155.10" width="23.46" height="20.47" fill="rgb(6, 109, 237)" fill-opacity="0.48"/>
<circle cx="431.22" cy="164.10" r="7.78" fill="rgb(125, 33, 232)" fill-opacity="0.42"/>
<rect x="454.20" y="155.11" width="29.86" height="36.36" fill="rgb(67, 195, 206)" fill-opacity="0.55"/>
<rect x="520.99" y="171.38" width="32.51" height="19.22" fill="rgb(238, 183, 59)" fill-opacity="0.40"/>
<rect x="543.97" y="153.48" width="46.13" height="19.64" fill="rgb(34, 140, 249)" fill-opacity="0.31"/>
<rect x="615.63" y="168.46" width="19.83" height="23.55" fill="rgb(26, 206, 178)" fill-opacity="0.85"/>
<circle cx="670.61" cy="179.03" r="11.52" fill="rgb(42, 207, 85)" fill-opacity="0.45"/>
<circle cx="726.03" cy="165.44" r="18.52" fill="rgb(252, 255, 243)" fill-opacity="0.36"/>
<rect x="4.95" y="211.90" width="25.93" height="35.80" fill="rgb(39, 83, 60)" fill-opacity="0.80"/>
<rect x="53.47" y="191.80" width="40.97" height="42.38" fill="rgb(218, 26, 220)" fill-opacity="0.69"/>
<circle cx="128.02" cy="236.49" r="18.10" fill="rgb(146, 21, 197)" fill-opacity="0.64"/>
<circle cx="322.85" cy="233.41" r="13.70" fill="rgb(40, 75, 132)" fill-opacity="0.74"/>
<circle cx="386.84" cy="220.57" r="18.41" fill="rgb(124, 114, 249)" fill-opacity="0.71"/>
<circle cx="428.31" cy="224.53" r="13.28" fill="rgb(69, 210, 237)" fill-opacity="0.50"/>
<circle cx="482.41" cy="237.11" r="22.48" fill="rgb(252, 8, 1)" fill-opacity="0.54"/>
<circle cx="526.92" cy="216.21" r="6.40" fill="rgb(42, 66, 74)" fill-opacity="0.25"/>
<circle cx="564.98" cy="222.58" r="13.05" fill="rgb(133, 203, 66)" fill-opacity="0.40"/>
<rect x="645.95" y="201.47" width="38.25" height="28.37" fill="rgb(181, 242, 10)" fill-opacity="0.74"/>
<rect x="716.84" y="204.09" width="24.74" height="27.92" fill="rgb(130, 140, 43)" fill-opacity="0.32"/>
<rect x="770.38" y="195.50" width="32.28" height="39.56" fill="rgb(171, 202, 251)" fill-opacity="0.34"/>
<circle cx="21.17" cy="282.96" r="8.42" fill="rgb(217, 193, 74)" fill-opacity="0.54"/>
<rect x="58.13" y="259.76" width="14.86" height="18.11" fill="rgb(170, 35, 131)" fill-opacity="0.59"/>
<rect x="120.73" y="257.56" width="17.31" height="22.60" fill="rgb(136, 67, 18)" fill-opacity="0.32"/>
<rect x="151.27" y="245.44" width="31.74" height="43.48" fill="rgb(221, 48, 161)" fill-opacity="0.53"/>
<circle cx="223.57" cy="273.53" r="18.99" fill="rgb(162, 113, 104)" fill-opacity="0.81"/>
<circle cx="272.57" cy="266.96" r="23.30" fill="rgb(40, 124, 127)" fill-opacity="0.43"/>
<circle cx="331.13" cy="274.85" r="22.09" fill="rgb(222, 112, 196)" fill-opacity="0.79"/>
<rect x="366.16" y="275.14" width="40.37" height="13.35" fill="rgb(189, 80, 107)" fill-opacity="0.60"/>
<rect x="401.13" y="261.68" width="43.23" height="26.26" fill="rgb(168, 111, 86)" fill-opacity="0.73"/>
<circle cx="462.78" cy="264.86" r="11.36" fill="rgb(50, 75, 97)" fill-opacity="0.57"/>
<rect x="515.43" y="269.81" width="32.83" height="33.88" fill="rgb(101, 76, 246)" fill-opacity="0.79"/>
<rect x="597.98" y="256.96" width="42.29" height="46.65" fill="rgb(78, 237, 188)" fill-opacity="0.68"/>
<rect x="671.87" y="274.32" width="28.79" height="14.07" fill="rgb(72, 117, 113)" fill-opacity="0.38"/>
<rect x="702.60" y="263.55" width="43.11" height="43.61" fill="rgb(154, 184, 135)" fill-opacity="0.70"/>
<rect x="744.79" y="251.74" width="38.14" height="43.80" fill="rgb(242, 180, 166)" fill-opacity="0.28"/>
<circle cx="14.31" cy="326.52" r="9.31" fill="rgb(124, 8, 156)" fill-opacity="0.80"/>
<circle cx="68.77" cy="322.41" r="6.24" fill="rgb(73, 138, 247)" fill-opacity="0.34"/>
<rect x="176.21" y="308.48" width="20.33" height="38.75" fill="rgb(157, 201, 99)" fill-opacity="0.60"/>
<circle cx="218.52" cy="331.45" r="9.03" fill="rgb(155, 131, 232)" fill-opacity="0.34"/>
<rect x="262.94" y="303.35" width="34.09" height="42.82" fill="rgb(202, 106, 179)" fill-opacity="0.51"/>
<rect x="313.25" y="321.41" width="16.63" height="24.70" fill="rgb(161, 17, 255)" fill-opacity="0.81"/>
<rect x="368.47" y="300.72" width="26.20" height="44.74" fill="rgb(240, 123, 248)" fill-opacity="0.78"/>
<circle cx="435.97" cy="312.59" r="18.10" fill="rgb(125, 133, 243)" fill-opacity="0.83"/>
<rect x="456.53" y="298.42" width="15.15" height="31.77" fill="rgb(98, 228, 248)" fill-opacity="0.69"/>
<circle cx="532.14" cy="328.08" r="23.39" fill="rgb(125, 32, 101)" fill-opacity="0.69"/>
<circle cx="573.89" cy="323.05" r="16.32" fill="rgb(55, 15, 223)" fill-opacity="0.35"/>
<circle cx="622.02" cy="318.15" r="19.76" fill="rgb(179, 175, 32)" fill-opacity="0.87"/>
<circle cx="681.20" cy="334.97" r="6.58" fill="rgb(225, 125, 127)" fill-opacity="0.83"/>
<circle cx="773.74" cy="326.49" r="17.19" fill="rgb(223, 155, 195)" fill-opacity="0.81"/>
<circle cx="34.75" cy="374.81" r="10.75" fill="rgb(31, 116, 220)" fill-opacity="0.85"/>
<circle cx="72.79" cy="384.93" r="22.28" fill="rgb(255, 34, 210)" fill-opacity="0.33"/>
<circle cx="130.40" cy="363.54" r="15.59" fill="rgb(158, 0, 114)" fill-opacity="0.68"/>
<rect x="252.99" y="366.13" width="33.00" height="13.69" fill="rgb(85, 71, 203)" fill-opacity="0.68"/>
<rect x="319.10" y="364.41" width="22.85" height="29.69" fill="rgb(238, 50, 108)" fill-opacity="0.81"/>
<circle cx="384.86" cy="377.37" r="21.36" fill="rgb(181, 197, 73)" fill-opacity="0.31"/>
<rect x="409.05" y="365.08" width="36.24" height="18.99" fill="rgb(93, 131, 194)" fill-opacity="0.82"/>
<circle cx="483.39" cy="379.87" r="10.61" fill="rgb(249, 195, 159)" fill-opacity="0.86"/>
<rect x="509.32" y="357.33" width="44.41" height="35.30" fill="rgb(59, 75, 79)" fill-opacity="0.61"/>
<circle cx="579.29" cy="367.30" r="19.50" fill="rgb(144, 38, 164)" fill-opacity="0.36"/>
<rect x="606.54" y="367.91" width="45.50" height="29.62" fill="rgb(190, 27, 116)" fill-opacity="0.25"/>
<rect x="666.04" y="368.19" width="18.80" height="36.34" fill="rgb(11, 124, 121)" fill-opacity="0.64"/>
<circle cx="732.76" cy="371.39" r="8.86" fill="rgb(243, 4, 2)" fill-opacity="0.58"/>
<circle cx="30.47" cy="416.97" r="11.39" fill="rgb(91, 38, 204)" fill-opacity="0.90"/>
<rect x="49.32" y="418.59" width="35.33" height="32.72" fill="rgb(216, 115, 183)" fill-opacity="0.70"/>
<rect x="114.32" y="398.60" width="30.51" height="28.62" fill="rgb(47, 243, 95)" fill-opacity="0.85"/>
<rect x="194.96" y="403.56" width="46.68" height="22.03" fill="rgb(5, 151, 37)" fill-opacity="0.33"/>
<rect x="269.00" y="392.37" width="36.27" height="43.79" fill="rgb(107, 158, 117)" fill-opacity="0.26"/>
<circle cx="326.06" cy="426.05" r="9.21" fill="rgb(16, 216, 154)" fill-opacity="0.37"/>
<circle cx="376.52" cy="420.05" r="19.67" fill="rgb(64, 144, 200)" fill-opacity="0.40"/>
<rect x="406.66" y="425.01" width="22.81" height="17.07" fill="rgb(113, 110, 32)" fill-opacity="0.62"/>
<circle cx="467.10" cy="414.84" r="18.78" fill="rgb(188, 251, 206)" fill-opacity="0.85"/>
<rect x="522.08" y="396.87" width="18.84" height="41.69" fill="rgb(147, 120, 126)" fill-opacity="0.49"/>
<rect x="560.20" y="418.40" width="13.59" height="23.24" fill="rgb(134, 25, 219)" fill-opacity="0.86"/>
<circle cx="614.02" cy="436.47" r="18.80" fill="rgb(203, 215, 96)" fill-opacity="0.26"/>
<circle cx="670.74" cy="421.62" r="17.52" fill="rgb(18, 192, 146)" fill-opacity="0.39"/>
<circle cx="773.39" cy="419.22" r="6.85" fill="rgb(245, 187, 245)" fill-opacity="0.45"/>
<rect x="57.05" y="446.10" width="20.44" height="33.25" fill="rgb(166, 245, 80)" fill-opacity="0.36"/>
<circle cx="225.88" cy="476.66" r="6.82" fill="rgb(102, 126, 45)" fill-opacity="0.66"/>
<rect x="259.76" y="449.56" width="35.26" height="38.10" fill="rgb(16, 26, 141)" fill-opacity="0.38"/>
<rect x="301.21" y="468.80" width="42.57" height="19.30" fill="rgb(239, 77, 57)" fill-opacity="0.58"/>
<rect x="420.62" y="459.53" width="32.31" height="22.84" fill="rgb(99, 158, 113)" fill-opacity="0.42"/>
<rect x="466.84" y="466.00" width="25.23" height="17.49" fill="rgb(35, 77, 71)" fill-opacity="0.71"/>
<circle cx="535.13" cy="484.37" r="21.61" fill="rgb(38, 226, 19)" fill-opacity="0.82"/>
<rect x="565.96" y="449.83" width="12.72" height="45.12" fill="rgb(17, 131, 34)" fill-opacity="0.49"/>
<circle cx="672.39" cy="478.76" r="19.99" fill="rgb(85, 101, 198)" fill-opacity="0.70"/>
<rect x="707.70" y="453.01" width="23.41" height="29.51" fill="rgb(155, 75, 28)" fill-opacity="0.33"/>
<circle cx="763.23" cy="468.01" r="6.98" fill="rgb(143, 43, 76)" fill-opacity="0.26"/>
<circle cx="32.42" cy="515.60" r="6.59" fill="rgb(19, 98, 165)" fill-opacity="0.26"/>
<rect x="67.73" y="512.53" width="38.32" height="32.24" fill="rgb(210, 168, 104)" fill-opacity="0.42"/>
<circle cx="125.17" cy="524.18" r="10.77" fill="rgb(158, 53, 138)" fill-opacity="0.75"/>
<circle cx="187.21" cy="532.92" r="6.87" fill="rgb(227, 190, 84)" fill-opacity="0.82"/>
<circle cx="221.90" cy="532.74" r="22.50" fill="rgb(39, 209, 178)" fill-opacity="0.78"/>
<rect x="291.02" y="497.53" width="44.25" height="42.24" fill="rgb(161, 237, 249)" fill-opacity="0.63"/>
<circle cx="434.02" cy="523.74" r="21.36" fill="rgb(11, 213, 193)" fill-opacity="0.43"/>
<circle cx="469.66" cy="515.21" r="13.96" fill="rgb(138, 163, 71)" fill-opacity="0.87"/>
<circle cx="530.81" cy="536.67" r="16.55" fill="rgb(17, 244, 136)" fill-opacity="0.77"/>
<rect x="562.64" y="499.82" width="22.25" height="34.45" fill="rgb(188, 164, 247)" fill-opacity="0.64"/>
<circle cx="673.11" cy="525.97" r="19.77" fill="rgb(219, 207, 64)" fill-opacity="0.37"/>
<rect x="699.81" y="507.82" width="32.12" height="25.38" fill="rgb(93, 179, 146)" fill-opacity="0.37"/>
<circle cx="785.18" cy="525.41" r="21.20" fill="rgb(224, 187, 9)" fill-opacity="0.77"/>
<rect x="8.50" y="545.70" width="16.71" height="34.63" fill="rgb(14, 55, 113)" fill-opacity="0.47"/>
<circle cx="70.46" cy="569.95" r="8.30" fill="rgb(99, 250, 227)" fill-opacity="0.40"/>
<circle cx="136.70" cy="564.66" r="21.87" fill="rgb(139, 142, 165)" fill-opacity="0.49"/>
<circle cx="186.26" cy="571.22" r="19.82" fill="rgb(67, 120, 180)" fill-opacity="0.35"/>
<rect x="221.31" y="559.97" width="23.27" height="42.89" fill="rgb(241, 125, 122)" fill-opacity="0.31"/>
<circle cx="277.76" cy="587.19" r="21.40" fill="rgb(237, 239, 58)" fill-opacity="0.51"/>
<circle cx="332.33" cy="580.39" r="9.24" fill="rgb(230, 193, 173)" fill-opacity="0.25"/>
<rect x="369.16" y="556.62" width="18.96" height="39.18" fill="rgb(78, 224, 242)" fill-opacity="0.39"/>
<circle cx="432.24" cy="587.39" r="14.59" fill="rgb(116, 157, 211)" fill-opacity="0.52"/>
<circle cx="466.56" cy="565.51" r="20.42" fill="rgb(185, 161, 119)" fill-opacity="0.78"/>
<circle cx="524.18" cy="578.66" r="20.12" fill="rgb(222, 130, 31)" fill-opacity="0.62"/>
<rect x="561.75" y="557.83" width="42.01" height="40.78" fill="rgb(146, 193, 246)" fill-opacity="0.58"/>
<circle cx="629.23" cy="577.16" r="16.51" fill="rgb(30, 56, 191)" fill-opacity="0.30"/>
<rect x="659.04" y="558.50" width="36.55" height="26.96" fill="rgb(178, 12, 60)" fill-opacity="0.52"/>
<rect x="714.36" y="562.01" width="16.56" height="13.10" fill="rgb(76, 75, 196)" fill-opacity="0.52"/>
<circle cx="770.09" cy="579.68" r="21.56" fill="rgb(66, 81, 35)" fill-opacity="0.78"/>
<circle cx="29.99" cy="616.18" r="6.42" fill="rgb(215, 116, 89)" fill-opacity="0.82"/>
<circle cx="82.97" cy="623.03" r="18.25" fill="rgb(4, 85, 151)" fill-opacity="0.57"/>
<circle cx="122.11" cy="630.85" r="23.11" fill="rgb(121, 157, 174)" fill-opacity="0.64"/>
<circle cx="176.03" cy="626.29" r="20.50" fill="rgb(253, 14, 239)" fill-opacity="0.36"/>
<circle cx="219.80" cy="629.29" r="8.22" fill="rgb(175, 36, 3)" fill-opacity="0.69"/>
<rect x="265.55" y="607.18" width="15.71" height="19.56" fill="rgb(109, 21, 53)" fill-opacity="0.48"/>
<circle cx="321.00" cy="628.99" r="19.58" fill="rgb(183, 195, 88)" fill-opacity="0.40"/>
<rect x="361.13" y="610.56" width="37.89" height="13.74" fill="rgb(198, 190, 213)" fill-opacity="0.62"/>
<circle cx="416.89" cy="613.43" r="6.06" fill="rgb(41, 223, 134)" fill-opacity="0.58"/>
<rect x="467.45" y="626.92" width="32.99" height="16.55" fill="rgb(171, 233, 103)" fill-opacity="0.63"/>
<circle cx="565.27" cy="616.03" r="12.24" fill="rgb(245, 152, 82)" fill-opacity="0.30"/>
<circle cx="678.32" cy="636.41" r="22.78" fill="rgb(151, 92, 162)" fill-opacity="0.84"/>
<circle cx="727.58" cy="620.09" r="12.82" fill="rgb(40, 70, 73)" fill-opacity="0.56"/>
<rect x="754.88" y="619.44" width="27.58" height="24.02" fill="rgb(255, 94, 107)" fill-opacity="0.79"/>
<circle cx="33.19" cy="664.63" r="22.58" fill="rgb(198, 67, 114)" fill-opacity="0.62"/>
<rect x="108.67" y="673.15" width="32.15" height="14.12" fill="rgb(109, 62, 111)" fill-opacity="0.25"/>
<circle cx="185.06" cy="667.56" r="7.41" fill="rgb(224, 79, 162)" fill-opacity="0.86"/>
<circle cx="223.61" cy="673.37" r="18.15" fill="rgb(123, 104, 143)" fill-opacity="0.26"/>
<circle cx="275.24" cy="668.66" r="20.91" fill="rgb(1, 171, 159)" fill-opacity="0.32"/>
<circle cx="328.58" cy="678.14" r="14.29" fill="rgb(250, 54, 151)" fill-opacity="0.87"/>
<circle cx="379.82" cy="665.37" r="8.86" fill="rgb(58, 24, 100)" fill-opacity="0.78"/>
<circle cx="437.32" cy="677.77" r="11.56" fill="rgb(139, 59, 111)" fill-opacity="0.46"/>
<rect x="508.53" y="655.54" width="38.86" height="30.55" fill="rgb(171, 30, 20)" fill-opacity="0.82"/>
<rect x="552.70" y="644.55" width="39.33" height="44.85" fill="rgb(44, 90, 48)" fill-opacity="0.54"/>
<rect x="624.43" y="656.96" width="23.72" height="46.16" fill="rgb(161, 77, 181)" fill-opacity="0.58"/>
<circle cx="684.85" cy="669.27" r="15.94" fill="rgb(154, 222, 17)" fill-opacity="0.68"/>
<circle cx="716.49" cy="664.32" r="22.10" fill="rgb(30, 99, 179)" fill-opacity="0.86"/>
<rect x="-8.96" y="725.96" width="43.44" height="18.04" fill="rgb(141, 250, 35)" fill-opacity="0.66"/>
<circle cx="69.73" cy="715.42" r="16.60" fill="rgb(25, 147, 49)" fill-opacity="0.75"/>
<circle cx="167.39" cy="736.26" r="20.68" fill="rgb(74, 92, 122)" fill-opacity="0.36"/>
<rect x="225.27" y="707.51" width="14.22" height="44.96" fill="rgb(163, 41, 3)" fill-opacity="0.53"/>
<rect x="263.47" y="694.60" width="44.12" height="44.74" fill="rgb(26, 151, 38)" fill-opacity="0.78"/>
<rect x="306.89" y="696.07" width="12.74" height="34.94" fill="rgb(60, 133, 153)" fill-opacity="0.79"/>
<circle cx="369.31" cy="713.12" r="7.45" fill="rgb(247, 235, 106)" fill-opacity="0.58"/>
<rect x="393.80" y="726.45" width="47.03" height="20.15" fill="rgb(2, 24, 234)" fill-opacity="0.28"/>
<circle cx="465.44" cy="733.15" r="10.74" fill="rgb(214, 38, 127)" fill-opacity="0.86"/>
<circle cx="513.39" cy="727.42" r="13.96" fill="rgb(45, 115, 41)" fill-opacity="0.33"/>
<rect x="554.24" y="717.12" width="46.07" height="21.47" fill="rgb(92, 127, 197)" fill-opacity="0.57"/>
<circle cx="677.01" cy="721.88" r="15.57" fill="rgb(234, 138, 179)" fill-opacity="0.27"/>
<rect x="696.85" y="726.01" width="45.47" height="21.75" fill="rgb(134, 23, 209)" fill-opacity="0.26"/>
<rect x="3.28" y="771.92" width="35.38" height="30.63" fill="rgb(112, 41, 81)" fill-opacity="0.63"/>
<circle cx="78.69" cy="787.09" r="20.57" fill="rgb(60, 0, 240)" fill-opacity="0.70"/>
<circle cx="176.33" cy="775.36" r="8.04" fill="rgb(237, 101, 122)" fill-opacity="0.89"/>
<circle cx="229.94" cy="769.53" r="13.23" fill="rgb(75, 130, 60)" fill-opacity="0.74"/>
<rect x="254.11" y="762.58" width="41.05" height="26.66" fill="rgb(66, 64, 52)" fill-opacity="0.59"/>
<rect x="317.48" y="747.27" width="35.46" height="40.19" fill="rgb(182, 92, 141)" fill-opacity="0.76"/>
<circle cx="379.06" cy="769.24" r="7.15" fill="rgb(192, 22, 162)" fill-opacity="0.28"/>
<circle cx="435.46" cy="779.15" r="17.88" fill="rgb(228, 190, 255)" fill-opacity="0.49"/>
<circle cx="477.96" cy="782.52" r="15.14" fill="rgb(21, 192, 194)" fill-opacity="0.72"/>
<circle cx="521.91" cy="784.95" r="16.99" fill="rgb(167, 0, 162)" fill-opacity="0.84"/>
<rect x="612.39" y="754.70" width="43.61" height="31.61" fill="rgb(230, 113, 213)" fill-opacity="0.64"/>
<rect x="672.69" y="760.08" width="27.16" height="37.57" fill="rgb(178, 182, 28)" fill-opacity="0.38"/>
<circle cx="715.68" cy="763.46" r="23.06" fill="rgb(45, 148, 190)" fill-opacity="0.56"/>
<rect x="757.08" y="764.97" width="35.29" height="25.98" fill="rgb(106, 151, 124)" fill-opacity="0.36"/>
<line x1="447.95" y1="402.22" x2="616.98" y2="410.06" stroke="rgb(107, 179, 73)" stroke-width="3.00" stroke-opacity="0.8" stroke-linecap="round"/>
<line x1="446.90" y1="410.21" x2="661.85" y2="456.98" stroke="rgb(34, 185, 145)" stroke-width="4.00" stroke-opacity="0.8" stroke-linecap="round"/>
<line x1="446.17" y1="413.12" x2="631.49" y2="465.78" stroke="rgb(238, 139, 195)" stroke-width="3.00" stroke-opacity="0.8" stroke-linecap="round"/>
<line x1="442.20" y1="422.87" x2="626.64" y2="522.79" stroke="rgb(70, 45, 67)" stroke-width="1.00" stroke-opacity="0.8" stroke-linecap="round"/>
<line x1="437.38" y1="430.11" x2="614.79" y2="573.01" stroke="rgb(15, 162, 89)" stroke-width="1.00" stroke-opacity="0.8" stroke-linecap="round"/>
<line x1="432.34" y1="435.47" x2="591.66" y2="610.26" stroke="rgb(112, 122, 89)" stroke-width="3.00" stroke-opacity="0.8" stroke-linecap="round"/>
<line x1="426.35" y1="440.12" x2="556.99" y2="638.98" stroke="rgb(167, 195, 253)" stroke-width="3.00" stroke-opacity="0.8" stroke-linecap="round"/>
<line x1="421.92" y1="442.70" x2="514.81" y2="623.67" stroke="rgb(215, 78, 95)" stroke-width="2.00" stroke-opacity="0.8" stroke-linecap="round"/>
<line x1="412.08" y1="446.45" x2="467.95" y2="661.27" stroke="rgb(172, 188, 73)" stroke-width="1.00" stroke-opacity="0.8" stroke-linecap="round"/>
<line x1="405.49" y1="447.69" x2="425.46" y2="621.30" stroke="rgb(31, 67, 152)" stroke-width="1.00" stroke-opacity="0.8" stroke-linecap="round"/>
<line x1="399.15" y1="447.99" x2="394.96" y2="683.31" stroke="rgb(149, 169, 51)" stroke-width="2.00" stroke-opacity="0.8" stroke-linecap="round"/>
<line x1="391.57" y1="447.25" x2="351.74" y2="670.38" stroke="rgb(96, 190, 0)" stroke-width="4.00" stroke-opacity="0.8" stroke-linecap="round"/>
<line x1="385.03" y1="445.61" x2="335.54" y2="596.45" stroke="rgb(229, 98, 95)" stroke-width="2.00" stroke-opacity="0.8" stroke-linecap="round"/>
<line x1="375.72" y1="441.41" x2="262.63" y2="634.25" stroke="rgb(171, 22, 24)" stroke-width="4.00" stroke-opacity="0.8" stroke-linecap="round"/>
<line x1="372.54" y1="439.37" x2="234.37" y2="637.43" stroke="rgb(90, 50, 42)" stroke-width="1.00" stroke-opacity="0.8" stroke-linecap="round"/>
<line x1="367.97" y1="435.75" x2="200.10" y2="623.10" stroke="rgb(104, 248, 25)" stroke-width="2.00" stroke-opacity="0.8" stroke-linecap="round"/>
<line x1="361.56" y1="428.75" x2="163.40" y2="576.97" stroke="rgb(30, 162, 144)" stroke-width="3.00" stroke-opacity="0.8" stroke-linecap="round"/>
<line x1="358.17" y1="423.54" x2="162.51" y2="533.63" stroke="rgb(192, 40, 138)" stroke-width="2.00" stroke-opacity="0.8" stroke-linecap="round"/>
<line x1="354.99" y1="416.68" x2="142.57" y2="495.40" stroke="rgb(66, 104, 183)" stroke-width="3.00" stroke-opacity="0.8" stroke-linecap="round"/>
<line x1="352.28" y1="405.17" x2="186.79" y2="423.11" stroke="rgb(231, 155, 102)" stroke-width="3.00" stroke-opacity="0.8" stroke-linecap="round"/>
<line x1="352.01" y1="400.99" x2="136.64" y2="405.46" stroke="rgb(224, 252, 80)" stroke-width="3.00" stroke-opacity="0.8" stroke-linecap="round"/>
<line x1="353.01" y1="390.22" x2="132.69" y2="344.36" stroke="rgb(134, 161, 13)" stroke-width="1.00" stroke-opacity="0.8" stroke-linecap="round"/>
<line x1="354.17" y1="385.72" x2="162.22" y2="325.89" stroke="rgb(73, 110, 121)" stroke-width="2.00" stroke-opacity="0.8" stroke-linecap="round"/>
<line x1="357.50" y1="377.69" x2="165.94" y2="277.15" stroke="rgb(220, 211, 242)" stroke-width="1.00" stroke-opacity="0.8" stroke-linecap="round"/>
<line x1="360.05" y1="373.40" x2="208.97" y2="272.80" stroke="rgb(246, 199, 169)" stroke-width="3.00" stroke-opacity="0.8" stroke-linecap="round"/>
<line x1="367.49" y1="364.69" x2="246.09" y2="232.81" stroke="rgb(46, 169, 192)" stroke-width="4.00" stroke-opacity="0.8" stroke-linecap="round"/>
<line x1="373.68" y1="359.86" x2="287.03" y2="227.69" stroke="rgb(201, 107, 66)" stroke-width="2.00" stroke-opacity="0.8" stroke-linecap="round"/>
<line x1="380.05" y1="356.34" x2="309.16" y2="201.21" stroke="rgb(91, 209, 213)" stroke-width="3.00" stroke-opacity="0.8" stroke-linecap="round"/>
<line x1="384.99" y1="354.41" x2="320.01" y2="157.00" stroke="rgb(17, 176, 246)" stroke-width="3.00" stroke-opacity="0.8" stroke-linecap="round"/>
<line x1="390.24" y1="353.00" x2="343.62" y2="128.60" stroke="rgb(76, 235, 0)" stroke-width="2.00" stroke-opacity="0.8" stroke-linecap="round"/>
<line x1="399.74" y1="352.00" x2="398.84" y2="190.19" stroke="rgb(193, 71, 115)" stroke-width="2.00" stroke-opacity="0.8" stroke-linecap="round"/>
<line x1="409.73" y1="353.00" x2="448.87" y2="163.94" stroke="rgb(19, 140, 149)" stroke-width="2.00" stroke-opacity="0.8" stroke-linecap="round"/>
<line x1="412.98" y1="353.79" x2="456.96" y2="197.21" stroke="rgb(239, 233, 32)" stroke-width="3.00" stroke-opacity="0.8" stroke-linecap="round"/>
<line x1="421.98" y1="357.33" x2="533.99" y2="139.89" stroke="rgb(124, 166, 89)" stroke-width="3.00" stroke-opacity="0.8" stroke-linecap="round"/>
<line x1="428.00" y1="361.01" x2="559.97" y2="177.25" stroke="rgb(235, 101, 188)" stroke-width="1.00" stroke-opacity="0.8" stroke-linecap="round"/>
<line x1="435.79" y1="368.02" x2="609.23" y2="213.02" stroke="rgb(141, 60, 228)" stroke-width="1.00" stroke-opacity="0.8" stroke-linecap="round"/>
<line x1="438.29" y1="371.06" x2="592.27" y2="254.66" stroke="rgb(149, 255, 11)" stroke-width="4.00" stroke-opacity="0.8" stroke-linecap="round"/>
<line x1="443.62" y1="379.96" x2="586.56" y2="314.28" stroke="rgb(154, 23, 18)" stroke-width="3.00" stroke-opacity="0.8" stroke-linecap="round"/>
<line x1="445.17" y1="383.76" x2="608.21" y2="325.14" stroke="rgb(190, 29, 239)" stroke-width="4.00" stroke-opacity="0.8" stroke-linecap="round"/>
<line x1="447.32" y1="391.97" x2="672.49" y2="353.77" stroke="rgb(56, 68, 211)" stroke-width="4.00" stroke-opacity="0.8" stroke-linecap="round"/>
<circle cx="400.00" cy="400.00" r="24.00" fill="rgb(87, 242, 173)"/>
</svg>
