<svg xmlns="http://www.w3.org/2000/svg" width="800" height="800">
<rect width="800" height="800" fill="rgb(3, 210, 89)"/>
<rect x="28.18" y="23.07" width="14.27" height="12.98" fill="rgb(158, 167, 228)" fill-opacity="0.56"/>
<circle cx="113.93" cy="27.50" r="9.61" fill="rgb(110, 67, 55)" fill-opacity="0.83"/>
<rect x="215.34" y="9.67" width="12.90" height="38.45" fill="rgb(227, 56, 194)" fill-opacity="0.31"/>
<circle cx="264.66" cy="14.47" r="11.25" fill="rgb(16, 254, 171)" fill-opacity="0.89"/>
<circle cx="314.28" cy="17.20" r="14.42" fill="rgb(190, 207, 198)" fill-opacity="0.77"/>
<rect x="355.45" y="-3.78" width="31.56" height="44.77" fill="rgb(126, 52, 227)" fill-opacity="0.58"/>
<circle cx="423.32" cy="19.78" r="18.50" fill="rgb(226, 117, 198)" fill-opacity="0.62"/>
<circle cx="533.89" cy="23.82" r="7.72" fill="rgb(233, 203, 191)" fill-opacity="0.82"/>
<circle cx="587.39" cy="37.10" r="18.35" fill="rgb(163, 228, 233)" fill-opacity="0.51"/>
<rect x="624.07" y="-0.94" width="13.92" height="29.12" fill="rgb(194, 131, 196)" fill-opacity="0.28"/>
<circle cx="736.02" cy="23.25" r="21.05" fill="rgb(202, 58, 137)" fill-opacity="0.82"/>
<rect x="764.17" y="5.64" width="29.80" height="28.74" fill="rgb(151, 243, 25)" fill-opacity="0.89"/>
<circle cx="26.92" cy="65.12" r="23.33" fill="rgb(57, 164, 9)" fill-opacity="0.68"/>
<rect x="51.55" y="75.80" width="23.12" height="22.29" fill="rgb(100, 202, 197)" fill-opacity="0.37"/>
<rect x="115.54" y="68.20" width="18.66" height="17.07" fill="rgb(195, 2, 224)" fill-opacity="0.76"/>
<circle cx="163.88" cy="73.36" r="9.23" fill="rgb(210, 191, 73)" fill-opacity="0.35"/>
<rect x="209.38" y="63.21" width="42.08" height="39.37" fill="rgb(198, 8, 42)" fill-opacity="0.44"/>
<rect x="244.39" y="56.01" width="42.68" height="14.03" fill="rgb(224, 170, 167)" fill-opacity="0.64"/>
<circle cx="313.28" cy="78.75" r="18.22" fill="rgb(95, 26, 85)" fill-opacity="0.64"/>
<rect x="369.96" y="54.74" width="13.73" height="26.44" fill="rgb(141, 157, 107)" fill-opacity="0.43"/>
<circle cx="417.09" cy="63.37" r="6.83" fill="rgb(104, 204, 151)" fill-opacity="0.60"/>
<circle cx="467.11" cy="67.98" r="19.55" fill="rgb(98, 137, 20)" fill-opacity="0.29"/>
<circle cx="519.53" cy="62.76" r="11.12" fill="rgb(199, 25, 137)" fill-opacity="0.61"/>
<rect x="554.06" y="55.94" width="22.45" height="34.04" fill="rgb(185, 78, 75)" fill-opacity="0.86"/>
<circle cx="724.46" cy="67.69" r="21.78" fill="rgb(101, 112, 31)" fill-opacity="0.67"/>
<rect x="764.05" y="70.67" width="21.11" height="20.75" fill="rgb(162, 176, 135)" fill-opacity="0.47"/>
<rect x="12.86" y="130.51" width="15.64" height="13.23" fill="rgb(3, 133, 46)" fill-opacity="0.45"/>
<rect x="64.01" y="123.06" width="14.84" height="19.26" fill="rgb(15, 19, 149)" fill-opacity="0.41"/>
<circle cx="129.62" cy="115.28" r="17.28" fill="rgb(203, 171, 170)" fill-opacity="0.72"/>
<circle cx="173.03" cy="116.57" r="23.37" fill="rgb(53, 28, 145)" fill-opacity="0.68"/>
<circle cx="219.72" cy="123.47" r="6.95" fill="rgb(188, 240, 74)" fill-opacity="0.40"/>
<rect x="255.82" y="104.53" width="45.16" height="41.35" fill="rgb(108, 153, 236)" fill-opacity="0.27"/>
<rect x="304.08" y="119.03" width="32.25" height="27.47" fill="rgb(99, 37, 230)" fill-opacity="0.27"/>
<rect x="358.33" y="109.50" width="47.35" height="28.99" fill="rgb(236, 107, 116)" fill-opacity="0.30"/>
<rect x="391.98" y="114.42" width="47.10" height="25.91" fill="rgb(202, 34, 226)" fill-opacity="0.89"/>
<circle cx="487.31" cy="123.06" r="7.26" fill="rgb(60, 103, 117)" fill-opacity="0.52"/>
<rect x="506.13" y="104.21" width="40.80" height="30.08" fill="rgb(237, 199, 59)" fill-opacity="0.81"/>
<rect x="567.53" y="126.86" width="22.68" height="20.20" fill="rgb(20, 184, 16)" fill-opacity="0.45"/>
<circle cx="632.95" cy="129.67" r="17.97" fill="rgb(24, 185, 11)" fill-opacity="0.75"/>
<rect x="654.23" y="113.95" width="37.05" height="27.93" fill="rgb(29, 1, 154)" fill-opacity="0.80"/>
<rect x="715.05" y="108.06" width="31.97" height="35.08" fill="rgb(164, 12, 176)" fill-opacity="0.47"/>
<circle cx="768.14" cy="120.83" r="10.09" fill="rgb(141, 160, 227)" fill-opacity="0.68"/>
<rect x="2.05" y="154.14" width="35.45" height="40.88" fill="rgb(204, 23, 75)" fill-opacity="0.88"/>
<rect x="44.59" y="150.27" width="41.18" height="40.04" fill="rgb(223, 113, 252)" fill-opacity="0.55"/>
<circle cx="122.35" cy="181.18" r="9.65" fill="rgb(192, 149, 58)" fill-opacity="0.56"/>
<circle cx="215.47" cy="167.06" r="8.58" fill="rgb(238, 91, 177)" fill-opacity="0.32"/>
<circle cx="281.58" cy="162.65" r="19.39" fill="rgb(79, 148, 134)" fill-opacity="0.86"/>
<circle cx="321.49" cy="174.95" r="6.29" fill="rgb(238, 36, 46)" fill-opacity="0.89"/>
<rect x="361.45" y="155.00" width="21.13" height="16.86" fill="rgb(83, 241, 23)" fill-opacity="0.55"/>
<circle cx="420.96" cy="176.62" r="13.64" fill="rgb(16, 187, 52)" fill-opacity="0.42"/>
<rect x="473.14" y="167.41" width="24.67" height="32.59" fill="rgb(42, 161, 125)" fill-opacity="0.83"/>
<rect x="520.46" y="147.90" width="14.78" height="41.57" fill="rgb(218, 179, 123)" fill-opacity="0.27"/>
<circle cx="565.47" cy="170.46" r="18.37" fill="rgb(46, 221, 129)" fill-opacity="0.43"/>
<rect x="597.73" y="145.57" width="37.73" height="39.36" fill="rgb(101, 223, 249)" fill-opacity="0.41"/>
<circle cx="676.59" cy="175.93" r="13.00" fill="rgb(37, 63, 82)" fill-opacity="0.67"/>
<rect x="698.79" y="168.77" width="35.62" height="20.33" fill="rgb(41, 213, 28)" fill-opacity="0.26"/>
<circle cx="771.15" cy="187.35" r="21.53" fill="rgb(247, 202, 145)" fill-opacity="0.31"/>
<circle cx="15.33" cy="229.67" r="8.91" fill="rgb(59, 81, 117)" fill-opacity="0.42"/>
<circle cx="184.20" cy="216.61" r="19.60" fill="rgb(133, 197, 16)" fill-opacity="0.88"/>
<circle cx="230.50" cy="236.92" r="11.70" fill="rgb(239, 146, 242)" fill-opacity="0.71"/>
<circle cx="283.63" cy="235.05" r="16.46" fill="rgb(52, 180, 4)" fill-opacity="0.72"/>
<circle cx="315.36" cy="236.35" r="11.01" fill="rgb(37, 67, 163)" fill-opacity="0.38"/>
<rect x="366.95" y="222.88" width="15.73" height="14.29" fill="rgb(211, 118, 3)" fill-opacity="0.86"/>
<circle cx="417.06" cy="228.56" r="19.68" fill="rgb(254, 206, 52)" fill-opacity="0.27"/>
<rect x="524.21" y="213.85" width="23.22" height="44.47" fill="rgb(217, 159, 199)" fill-opacity="0.51"/>
<rect x="557.27" y="219.50" width="43.57" height="13.31" fill="rgb(120, 167, 0)" fill-opacity="0.77"/>
<circle cx="621.15" cy="220.38" r="13.97" fill="rgb(12, 76, 134)" fill-opacity="0.40"/>
<rect x="710.50" y="205.30" width="15.29" height="31.10" fill="rgb(89, 197, 110)" fill-opacity="0.76"/>
<circle cx="26.23" cy="275.19" r="18.65" fill="rgb(61, 197, 61)" fill-opacity="0.31"/>
<circle cx="71.75" cy="275.75" r="21.30" fill="rgb(127, 161, 229)" fill-opacity="0.60"/>
<rect x="102.68" y="254.98" width="24.61" height="34.01" fill="rgb(165, 240, 39)" fill-opacity="0.88"/>
<circle cx="187.03" cy="269.05" r="8.11" fill="rgb(106, 111, 180)" fill-opacity="0.40"/>
<rect x="203.59" y="277.61" width="21.25" height="19.15" fill="rgb(220, 5, 75)" fill-opacity="0.62"/>
<circle cx="284.26" cy="279.51" r="15.42" fill="rgb(15, 60, 128)" fill-opacity="0.58"/>
<circle cx="321.42" cy="281.69" r="13.40" fill="rgb(124, 88, 176)" fill-opacity="0.54"/>
<circle cx="369.55" cy="282.60" r="20.73" fill="rgb(122, 100, 228)" fill-opacity="0.37"/>
<circle cx="413.03" cy="264.97" r="16.18" fill="rgb(27, 79, 77)" fill-opacity="0.84"/>
<circle cx="472.66" cy="271.87" r="9.67" fill="rgb(124, 19, 247)" fill-opacity="0.32"/>
<circle cx="526.02" cy="270.54" r="12.67" fill="rgb(78, 195, 46)" fill-opacity="0.35"/>
<rect x="555.56" y="274.21" width="27.93" height="14.18" fill="rgb(139, 216, 190)" fill-opacity="0.48"/>
<rect x="612.93" y="267.72" width="27.85" height="26.21" fill="rgb(121, 232, 186)" fill-opacity="0.50"/>
<circle cx="667.43" cy="268.98" r="7.91" fill="rgb(179, 6, 189)" fill-opacity="0.49"/>
<circle cx="735.34" cy="269.21" r="16.84" fill="rgb(157, 191, 237)" fill-opacity="0.75"/>
<rect x="767.80" y="260.00" width="21.54" height="42.53" fill="rgb(202, 31, 168)" fill-opacity="0.32"/>
<circle cx="35.98" cy="313.02" r="21.25" fill="rgb(251, 162, 193)" fill-opacity="0.48"/>
<rect x="58.42" y="298.30" width="37.68" height="32.22" fill="rgb(147, 211, 127)" fill-opacity="0.64"/>
<rect x="104.50" y="315.00" width="17.67" height="28.43" fill="rgb(40, 71, 252)" fill-opacity="0.84"/>
<circle cx="181.63" cy="315.74" r="18.07" fill="rgb(99, 163, 58)" fill-opacity="0.41"/>
<circle cx="223.85" cy="323.34" r="10.55" fill="rgb(8, 144, 71)" fill-opacity="0.69"/>
<rect x="276.26" y="306.00" width="12.74" height="44.56" fill="rgb(186, 158, 187)" fill-opacity="0.61"/>
<rect x="365.73" y="309.02" width="13.74" height="43.05" fill="rgb(153, 152, 224)" fill-opacity="0.78"/>
<rect x="409.66" y="305.43" width="41.80" height="25.09" fill="rgb(189, 25, 63)" fill-opacity="0.77"/>
<circle cx="471.32" cy="336.91" r="13.51" fill="rgb(62, 195, 24)" fill-opacity="0.82"/>
<circle cx="564.36" cy="321.05" r="11.33" fill="rgb(58, 24, 218)" fill-opacity="0.56"/>
<rect x="623.85" y="316.20" width="13.39" height="38.02" fill="rgb(237, 6, 15)" fill-opacity="0.60"/>
<circle cx="668.25" cy="314.36" r="7.19" fill="rgb(64, 176, 88)" fill-opacity="0.65"/>
<rect x="715.73" y="311.50" width="20.54" height="14.86" fill="rgb(211, 213, 204)" fill-opacity="0.63"/>
<circle cx="785.66" cy="322.20" r="9.70" fill="rgb(41, 217, 62)" fill-opacity="0.79"/>
<circle cx="15.39" cy="384.46" r="6.97" fill="rgb(186, 90, 39)" fill-opacity="0.29"/>
<circle cx="77.95" cy="364.61" r="11.44" fill="rgb(25, 56, 102)" fill-opacity="0.50"/>
<rect x="124.24" y="351.03" width="17.27" height="43.01" fill="rgb(30, 37, 115)" fill-opacity="0.50"/>
<circle cx="183.87" cy="380.86" r="22.79" fill="rgb(224, 171, 181)" fill-opacity="0.38"/>
<circle cx="228.70" cy="382.36" r="14.18" fill="rgb(174, 4, 187)" fill-opacity="0.80"/>
<circle cx="273.93" cy="370.18" r="12.89" fill="rgb(25, 71, 85)" fill-opacity="0.76"/>
<rect x="321.21" y="376.79" width="29.61" height="18.21" fill="rgb(75, 159, 81)" fill-opacity="0.63"/>
<rect x="361.21" y="354.27" width="45.99" height="40.52" fill="rgb(107, 163, 45)" fill-opacity="0.88"/>
<circle cx="464.46" cy="369.36" r="12.53" fill="rgb(166, 60, 230)" fill-opacity="0.62"/>
<circle cx="581.56" cy="371.02" r="21.58" fill="rgb(109, 93, 65)" fill-opacity="0.51"/>
<rect x="607.46" y="359.06" width="44.27" height="43.76" fill="rgb(139, 144, 158)" fill-opacity="0.47"/>
<rect x="661.66" y="357.40" width="31.94" height="34.31" fill="rgb(88, 155, 46)" fill-opacity="0.32"/>
<circle cx="731.04" cy="374.39" r="16.48" fill="rgb(229, 14, 149)" fill-opacity="0.67"/>
<circle cx="765.07" cy="385.65" r="11.55" fill="rgb(111, 74, 254)" fill-opacity="0.83"/>
<circle cx="28.17" cy="420.77" r="9.44" fill="rgb(118, 75, 171)" fill-opacity="0.78"/>
<circle cx="86.83" cy="423.02" r="21.84" fill="rgb(124, 159, 204)" fill-opacity="0.54"/>
<circle cx="128.52" cy="419.96" r="11.84" fill="rgb(84, 205, 108)" fill-opacity="0.26"/>
<circle cx="171.13" cy="419.11" r="21.67" fill="rgb(88, 117, 197)" fill-opacity="0.74"/>
<rect x="213.59" y="414.93" width="16.50" height="21.49" fill="rgb(151, 63, 45)" fill-opacity="0.40"/>
<circle cx="327.91" cy="435.40" r="19.95" fill="rgb(204, 100, 214)" fill-opacity="0.80"/>
<circle cx="363.51" cy="413.89" r="6.47" fill="rgb(88, 41, 54)" fill-opacity="0.72"/>
<circle cx="417.17" cy="433.37" r="12.64" fill="rgb(78, 186, 68)" fill-opacity="0.66"/>
<rect x="468.74" y="413.58" width="31.43" height="31.55" fill="rgb(222, 34, 250)" fill-opacity="0.88"/>
<rect x="514.82" y="418.16" width="39.69" height="30.50" fill="rgb(4, 75, 240)" fill-opacity="0.65"/>
<circle cx="578.06" cy="424.40" r="22.80" fill="rgb(44, 59, 79)" fill-opacity="0.41"/>
<rect x="611.51" y="397.29" width="33.52" height="39.40" fill="rgb(115, 201, 252)" fill-opacity="0.89"/>
<rect x="654.56" y="406.90" width="20.57" height="31.82" fill="rgb(119, 252, 90)" fill-opacity="0.76"/>
<circle cx="731.86" cy="423.70" r="14.80" fill="rgb(90, 68, 74)" fill-opacity="0.90"/>
<rect x="756.92" y="416.22" width="38.31" height="32.79" fill="rgb(121, 35, 51)" fill-opacity="0.69"/>
<circle cx="84.47" cy="484.57" r="19.11" fill="rgb(104, 181, 246)" fill-opacity="0.26"/>
<rect x="96.70" y="446.98" width="33.46" height="41.12" fill="rgb(51, 77, 53)" fill-opacity="0.86"/>
<rect x="166.27" y="473.89" width="34.42" height="21.36" fill="rgb(238, 148, 148)" fill-opacity="0.33"/>
<circle cx="213.09" cy="462.87" r="18.59" fill="rgb(136, 240, 73)" fill-opacity="0.72"/>
<circle cx="281.14" cy="485.90" r="20.49" fill="rgb(59, 116, 217)" fill-opacity="0.83"/>
<rect x="304.06" y="462.40" width="25.82" height="34.64" fill="rgb(94, 34, 154)" fill-opacity="0.90"/>
<circle cx="377.89" cy="463.79" r="6.45" fill="rgb(156, 230, 161)" fill-opacity="0.80"/>
<rect x="508.93" y="469.30" width="21.90" height="12.92" fill="rgb(156, 176, 81)" fill-opacity="0.62"/>
<rect x="565.82" y="444.99" width="33.96" height="39.80" fill="rgb(93, 248, 153)" fill-opacity="0.28"/>
<circle cx="618.22" cy="471.70" r="17.25" fill="rgb(31, 250, 199)" fill-opacity="0.44"/>
<rect x="677.28" y="455.78" width="15.01" height="38.35" fill="rgb(117, 14, 222)" fill-opacity="0.64"/>
<rect x="710.40" y="461.60" width="28.18" height="21.45" fill="rgb(171, 46, 157)" fill-opacity="0.73"/>
<circle cx="778.47" cy="467.62" r="11.53" fill="rgb(162, 205, 170)" fill-opacity="0.49"/>
<circle cx="63.41" cy="518.61" r="11.25" fill="rgb(173, 131, 95)" fill-opacity="0.37"/>
<circle cx="134.37" cy="514.80" r="13.03" fill="rgb(95, 214, 207)" fill-opacity="0.30"/>
<circle cx="174.35" cy="525.79" r="9.12" fill="rgb(171, 217, 60)" fill-opacity="0.38"/>
<circle cx="234.79" cy="518.29" r="16.26" fill="rgb(45, 50, 87)" fill-opacity="0.59"/>
<rect x="273.37" y="512.82" width="21.82" height="38.49" fill="rgb(178, 233, 93)" fill-opacity="0.90"/>
<rect x="309.02" y="512.85" width="26.59" height="15.39" fill="rgb(175, 72, 199)" fill-opacity="0.35"/>
<circle cx="581.68" cy="534.75" r="9.57" fill="rgb(199, 178, 195)" fill-opacity="0.31"/>
<circle cx="625.69" cy="522.56" r="12.72" fill="rgb(251, 64, 29)" fill-opacity="0.75"/>
<circle cx="685.72" cy="526.90" r="15.69" fill="rgb(219, 236, 48)" fill-opacity="0.52"/>
<circle cx="716.49" cy="531.14" r="11.19" fill="rgb(150, 67, 226)" fill-opacity="0.84"/>
<circle cx="62.59" cy="580.76" r="18.61" fill="rgb(225, 249, 200)" fill-opacity="0.89"/>
<circle cx="134.54" cy="585.16" r="10.45" fill="rgb(8, 161, 236)" fill-opacity="0.72"/>
<circle cx="174.52" cy="569.59" r="20.04" fill="rgb(56, 29, 175)" fill-opacity="0.54"/>
<rect x="221.28" y="560.61" width="16.40" height="17.10" fill="rgb(244, 103, 47)" fill-opacity="0.58"/>
<rect x="262.46" y="551.72" width="35.77" height="23.91" fill="rgb(135, 77, 187)" fill-opacity="0.45"/>
<circle cx="323.74" cy="583.06" r="22.38" fill="rgb(101, 184, 67)" fill-opacity="0.72"/>
<rect x="351.83" y="548.99" width="24.35" height="43.19" fill="rgb(126, 199, 208)" fill-opacity="0.76"/>
<rect x="394.40" y="547.74" width="37.05" height="44.37" fill="rgb(185, 2, 155)" fill-opacity="0.28"/>
<circle cx="484.50" cy="566.75" r="16.36" fill="rgb(2, 229, 34)" fill-opacity="0.90"/>
<circle cx="517.39" cy="566.40" r="18.81" fill="rgb(187, 196, 64)" fill-opacity="0.69"/>
<rect x="543.47" y="542.57" width="46.67" height="46.71" fill="rgb(178, 223, 23)" fill-opacity="0.43"/>
<rect x="601.49" y="563.82" width="37.74" height="21.07" fill="rgb(214, 36, 125)" fill-opacity="0.28"/>
<rect x="643.17" y="542.59" width="46.69" height="39.86" fill="rgb(193, 206, 4)" fill-opacity="0.36"/>
<rect x="711.28" y="564.29" width="30.28" height="22.84" fill="rgb(104, 16, 76)" fill-opacity="0.62"/>
<circle cx="768.83" cy="584.75" r="10.42" fill="rgb(230, 76, 195)" fill-opacity="0.67"/>
<circle cx="20.54" cy="615.89" r="7.98" fill="rgb(62, 208, 238)" fill-opacity="0.76"/>
<circle cx="123.05" cy="615.60" r="15.94" fill="rgb(221, 53, 133)" fill-opacity="0.33"/>
<circle cx="274.20" cy="617.36" r="21.46" fill="rgb(60, 255, 212)" fill-opacity="0.45"/>
<rect x="297.83" y="604.33" width="33.39" height="35.79" fill="rgb(225, 35, 19)" fill-opacity="0.84"/>
<circle cx="371.44" cy="635.54" r="6.82" fill="rgb(205, 37, 18)" fill-opacity="0.49"/>
<circle cx="427.94" cy="620.14" r="8.53" fill="rgb(129, 48, 124)" fill-opacity="0.71"/>
<circle cx="471.83" cy="621.16" r="21.32" fill="rgb(148, 102, 13)" fill-opacity="0.53"/>
<circle cx="522.37" cy="629.26" r="7.53" fill="rgb(13, 100, 129)" fill-opacity="0.85"/>
<circle cx="636.07" cy="625.24" r="7.79" fill="rgb(148, 54, 94)" fill-opacity="0.89"/>
<circle cx="715.47" cy="622.75" r="21.23" fill="rgb(69, 88, 25)" fill-opacity="0.33"/>
<rect x="5.77" y="665.79" width="38.75" height="18.75" fill="rgb(173, 92, 249)" fill-opacity="0.48"/>
<rect x="44.17" y="669.84" width="42.53" height="24.37" fill="rgb(165, 213, 40)" fill-opacity="0.55"/>
<circle cx="136.86" cy="673.69" r="21.85" fill="rgb(114, 57, 229)" fill-opacity="0.63"/>
<rect x="163.96" y="676.66" width="41.65" height="19.02" fill="rgb(145, 236, 142)" fill-opacity="0.73"/>
<circle cx="218.11" cy="663.97" r="18.34" fill="rgb(79, 239, 83)" fill-opacity="0.41"/>
<rect x="257.72" y="655.58" width="37.63" height="26.37" fill="rgb(89, 178, 179)" fill-opacity="0.50"/>
<rect x="457.54" y="654.77" width="23.96" height="31.37" fill="rgb(42, 186, 222)" fill-opacity="0.57"/>
<circle cx="535.85" cy="682.61" r="14.31" fill="rgb(63, 93, 112)" fill-opacity="0.66"/>
<circle cx="566.38" cy="680.41" r="17.81" fill="rgb(136, 96, 198)" fill-opacity="0.59"/>
<circle cx="631.48" cy="671.42" r="20.08" fill="rgb(77, 144, 79)" fill-opacity="0.83"/>
<rect x="654.73" y="665.21" width="40.06" height="34.69" fill="rgb(210, 32, 64)" fill-opacity="0.87"/>
<circle cx="731.54" cy="677.20" r="8.82" fill="rgb(13, 64, 211)" fill-opacity="0.64"/>
<rect x="775.52" y="648.05" width="14.04" height="32.94" fill="rgb(40, 78, 247)" fill-opacity="0.68"/>
<circle cx="76.82" cy="717.89" r="18.83" fill="rgb(154, 32, 88)" fill-opacity="0.35"/>
<rect x="107.59" y="729.42" width="33.12" height="12.88" fill="rgb(60, 51, 71)" fill-opacity="0.35"/>
<circle cx="179.12" cy="730.03" r="9.89" fill="rgb(86, 34, 63)" fill-opacity="0.46"/>
<rect x="192.44" y="710.41" width="46.96" height="16.16" fill="rgb(185, 124, 151)" fill-opacity="0.79"/>
<rect x="272.00" y="703.80" width="13.96" height="23.48" fill="rgb(123, 211, 134)" fill-opacity="0.30"/>
<rect x="324.35" y="713.46" width="14.34" height="20.42" fill="rgb(59, 42, 82)" fill-opacity="0.25"/>
<rect x="395.60" y="720.51" width="44.70" height="15.96" fill="rgb(58, 79, 212)" fill-opacity="0.31"/>
<circle cx="467.11" cy="735.28" r="16.06" fill="rgb(15, 126, 202)" fill-opacity="0.74"/>
<circle cx="523.33" cy="718.43" r="13.25" fill="rgb(95, 73, 177)" fill-opacity="0.75"/>
<rect x="575.83" y="717.04" width="17.95" height="18.73" fill="rgb(95, 111, 69)" fill-opacity="0.33"/>
<rect x="619.70" y="710.03" width="25.79" height="23.01" fill="rgb(82, 33, 68)" fill-opacity="0.47"/>
<rect x="658.28" y="722.28" width="36.28" height="29.27" fill="rgb(104, 117, 144)" fill-opacity="0.82"/>
<circle cx="721.05" cy="726.28" r="10.07" fill="rgb(75, 20, 86)" fill-opacity="0.72"/>
<circle cx="780.31" cy="727.55" r="22.95" fill="rgb(119, 228, 67)" fill-opacity="0.56"/>
<rect x="-1.39" y="764.06" width="41.36" height="24.04" fill="rgb(110, 115, 111)" fill-opacity="0.56"/>
<circle cx="164.16" cy="767.88" r="23.19" fill="rgb(158, 234, 60)" fill-opacity="0.53"/>
<circle cx="229.51" cy="778.86" r="14.80" fill="rgb(238, 7, 132)" fill-opacity="0.43"/>
<circle cx="281.74" cy="778.23" r="14.81" fill="rgb(86, 9, 231)" fill-opacity="0.46"/>
<rect x="296.57" y="756.30" width="45.75" height="15.62" fill="rgb(101, 94, 70)" fill-opacity="0.43"/>
<rect x="348.42" y="758.43" width="43.88" height="35.31" fill="rgb(232, 112, 125)" fill-opacity="0.66"/>
<rect x="415.46" y="752.41" width="35.03" height="33.33" fill="rgb(134, 126, 174)" fill-opacity="0.40"/>
<rect x="462.58" y="764.17" width="23.44" height="16.07" fill="rgb(188, 88, 170)" fill-opacity="0.61"/>
<circle cx="520.61" cy="783.04" r="10.02" fill="rgb(32, 121, 163)" fill-opacity="0.60"/>
<circle cx="576.85" cy="764.71" r="22.65" fill="rgb(216, 248, 106)" fill-opacity="0.30"/>
<rect x="643.65" y="772.74" width="41.89" height="13.92" fill="rgb(246, 192, 196)" fill-opacity="0.41"/>
<circle cx="781.02" cy="764.54" r="22.54" fill="rgb(58, 163, 157)" fill-opacity="0.66"/>
<line x1="447.93" y1="397.39" x2="634.72" y2="387.20" stroke="rgb(82, 133, 25)" stroke-width="4.00" stroke-opacity="0.8" stroke-linecap="round"/>
<line x1="447.50" y1="406.92" x2="654.78" y2="437.12" stroke="rgb(132, 70, 110)" stroke-width="1.00" stroke-opacity="0.8" stroke-linecap="round"/>
<line x1="445.29" y1="415.91" x2="627.13" y2="479.79" stroke="rgb(153, 161, 188)" stroke-width="4.00" stroke-opacity="0.8" stroke-linecap="round"/>
<line x1="442.68" y1="421.97" x2="666.20" y2="537.01" stroke="rgb(55, 240, 195)" stroke-width="3.00" stroke-opacity="0.8" stroke-linecap="round"/>
<line x1="440.30" y1="426.07" x2="584.70" y2="519.46" stroke="rgb(159, 204, 25)" stroke-width="4.00" stroke-opacity="0.8" stroke-linecap="round"/>
<line x1="432.29" y1="435.51" x2="566.70" y2="583.32" stroke="rgb(122, 147, 154)" stroke-width="1.00" stroke-opacity="0.8" stroke-linecap="round"/>
<line x1="427.83" y1="439.11" x2="565.28" y2="632.20" stroke="rgb(213, 73, 37)" stroke-width="4.00" stroke-opacity="0.8" stroke-linecap="round"/>
<line x1="424.08" y1="441.52" x2="535.35" y2="633.39" stroke="rgb(183, 92, 4)" stroke-width="1.00" stroke-opacity="0.8" stroke-linecap="round"/>
<line x1="412.12" y1="446.45" x2="455.57" y2="613.03" stroke="rgb(71, 204, 91)" stroke-width="2.00" stroke-opacity="0.8" stroke-linecap="round"/>
<line x1="408.08" y1="447.32" x2="443.11" y2="652.48" stroke="rgb(182, 230, 48)" stroke-width="2.00" stroke-opacity="0.8" stroke-linecap="round"/>
<line x1="401.99" y1="447.96" x2="412.11" y2="692.14" stroke="rgb(198, 16, 181)" stroke-width="1.00" stroke-opacity="0.8" stroke-linecap="round"/>
<line x1="392.51" y1="447.41" x2="364.47" y2="624.82" stroke="rgb(245, 70, 114)" stroke-width="2.00" stroke-opacity="0.8" stroke-linecap="round"/>
<line x1="384.42" y1="445.40" x2="322.53" y2="625.85" stroke="rgb(72, 46, 64)" stroke-width="2.00" stroke-opacity="0.8" stroke-linecap="round"/>
<line x1="378.67" y1="443.00" x2="273.09" y2="655.86" stroke="rgb(130, 224, 163)" stroke-width="1.00" stroke-opacity="0.8" stroke-linecap="round"/>
<line x1="370.60" y1="437.94" x2="269.42" y2="568.50" stroke="rgb(108, 35, 39)" stroke-width="1.00" stroke-opacity="0.8" stroke-linecap="round"/>
<line x1="366.94" y1="434.80" x2="213.44" y2="596.36" stroke="rgb(120, 189, 253)" stroke-width="4.00" stroke-opacity="0.8" stroke-linecap="round"/>
<line x1="361.98" y1="429.30" x2="172.37" y2="575.39" stroke="rgb(47, 239, 250)" stroke-width="4.00" stroke-opacity="0.8" stroke-linecap="round"/>
<line x1="358.54" y1="424.19" x2="179.95" y2="528.41" stroke="rgb(26, 253, 223)" stroke-width="4.00" stroke-opacity="0.8" stroke-linecap="round"/>
<line x1="354.50" y1="415.30" x2="138.74" y2="487.87" stroke="rgb(218, 226, 161)" stroke-width="3.00" stroke-opacity="0.8" stroke-linecap="round"/>
<line x1="352.64" y1="407.83" x2="148.22" y2="441.66" stroke="rgb(38, 70, 73)" stroke-width="2.00" stroke-opacity="0.8" stroke-linecap="round"/>
<line x1="352.04" y1="401.99" x2="182.88" y2="409.00" stroke="rgb(118, 92, 190)" stroke-width="2.00" stroke-opacity="0.8" stroke-linecap="round"/>
<line x1="352.38" y1="393.97" x2="129.45" y2="365.72" stroke="rgb(245, 239, 201)" stroke-width="2.00" stroke-opacity="0.8" stroke-linecap="round"/>
<line x1="355.26" y1="382.60" x2="205.99" y2="324.56" stroke="rgb(60, 101, 240)" stroke-width="4.00" stroke-opacity="0.8" stroke-linecap="round"/>
<line x1="356.20" y1="380.37" x2="137.69" y2="282.41" stroke="rgb(212, 148, 221)" stroke-width="3.00" stroke-opacity="0.8" stroke-linecap="round"/>
<line x1="361.68" y1="371.10" x2="186.00" y2="238.60" stroke="rgb(43, 186, 64)" stroke-width="1.00" stroke-opacity="0.8" stroke-linecap="round"/>
<line x1="365.99" y1="366.13" x2="224.89" y2="225.65" stroke="rgb(106, 61, 136)" stroke-width="3.00" stroke-opacity="0.8" stroke-linecap="round"/>
<line x1="370.66" y1="362.01" x2="230.17" y2="180.09" stroke="rgb(112, 153, 210)" stroke-width="2.00" stroke-opacity="0.8" stroke-linecap="round"/>
<line x1="376.16" y1="358.34" x2="271.85" y2="176.05" stroke="rgb(48, 182, 51)" stroke-width="3.00" stroke-opacity="0.8" stroke-linecap="round"/>
<line x1="383.42" y1="354.95" x2="310.23" y2="156.08" stroke="rgb(2, 119, 60)" stroke-width="4.00" stroke-opacity="0.8" stroke-linecap="round"/>
<line x1="390.06" y1="353.04" x2="353.39" y2="179.86" stroke="rgb(205, 109, 105)" stroke-width="1.00" stroke-opacity="0.8" stroke-linecap="round"/>
<line x1="398.62" y1="352.02" x2="392.69" y2="146.35" stroke="rgb(216, 11, 70)" stroke-width="3.00" stroke-opacity="0.8" stroke-linecap="round"/>
<line x1="408.24" y1="352.71" x2="444.77" y2="143.14" stroke="rgb(153, 139, 14)" stroke-width="4.00" stroke-opacity="0.8" stroke-linecap="round"/>
<line x1="413.65" y1="353.98" x2="460.76" y2="195.20" stroke="rgb(75, 94, 148)" stroke-width="2.00" stroke-opacity="0.8" stroke-linecap="round"/>
<line x1="420.99" y1="356.83" x2="505.61" y2="182.76" stroke="rgb(61, 91, 29)" stroke-width="3.00" stroke-opacity="0.8" stroke-linecap="round"/>
<line x1="428.53" y1="361.40" x2="537.02" y2="214.63" stroke="rgb(83, 206, 53)" stroke-width="1.00" stroke-opacity="0.8" stroke-linecap="round"/>
<line x1="433.44" y1="365.56" x2="585.54" y2="208.91" stroke="rgb(251, 118, 43)" stroke-width="2.00" stroke-opacity="0.8" stroke-linecap="round"/>
<line x1="439.25" y1="372.37" x2="650.90" y2="223.36" stroke="rgb(104, 56, 136)" stroke-width="3.00" stroke-opacity="0.8" stroke-linecap="round"/>
<line x1="443.24" y1="379.17" x2="670.67" y2="269.61" stroke="rgb(55, 67, 160)" stroke-width="2.00" stroke-opacity="0.8" stroke-linecap="round"/>
<line x1="445.74" y1="385.45" x2="661.04" y2="316.98" stroke="rgb(155, 123, 118)" stroke-width="1.00" stroke-opacity="0.8" stroke-linecap="round"/>
<line x1="447.05" y1="390.51" x2="622.27" y2="355.18" stroke="rgb(166, 226, 200)" stroke-width="4.00" stroke-opacity="0.8" stroke-linecap="round"/>
<circle cx="400.00" cy="400.00" r="24.00" fill="rgb(196, 128, 185)"/>
</svg>
